<svg width="170" height="201" viewBox="0 0 170 201" fill="none" xmlns="http://www.w3.org/2000/svg">
<path id="Combined Shape" opacity="0.2" fill-rule="evenodd" clip-rule="evenodd" d="M138.055 5.87627C138.055 9.12636 135.42 11.7611 132.17 11.7611C128.92 11.7611 126.285 9.12636 126.285 5.87627C126.285 2.62618 128.92 -0.00854492 132.17 -0.00854492C135.42 -0.00854492 138.055 2.62618 138.055 5.87627ZM163.558 11.7612C166.808 11.7612 169.443 9.12643 169.443 5.87634C169.443 2.62625 166.808 -0.00847611 163.558 -0.00847611C160.308 -0.00847611 157.673 2.62625 157.673 5.87634C157.673 9.12643 160.308 11.7612 163.558 11.7612ZM138.055 37.2618C138.055 40.5119 135.42 43.1466 132.17 43.1466C128.92 43.1466 126.285 40.5119 126.285 37.2618C126.285 34.0117 128.92 31.377 132.17 31.377C135.42 31.377 138.055 34.0117 138.055 37.2618ZM163.558 43.1467C166.808 43.1467 169.443 40.5119 169.443 37.2618C169.443 34.0117 166.808 31.377 163.558 31.377C160.308 31.377 157.673 34.0117 157.673 37.2618C157.673 40.5119 160.308 43.1467 163.558 43.1467ZM138.055 68.6478C138.055 71.8979 135.42 74.5326 132.17 74.5326C128.92 74.5326 126.285 71.8979 126.285 68.6478C126.285 65.3977 128.92 62.763 132.17 62.763C135.42 62.763 138.055 65.3977 138.055 68.6478ZM163.558 74.5326C166.808 74.5326 169.443 71.8979 169.443 68.6478C169.443 65.3977 166.808 62.763 163.558 62.763C160.308 62.763 157.673 65.3977 157.673 68.6478C157.673 71.8979 160.308 74.5326 163.558 74.5326ZM163.558 105.918C166.808 105.918 169.443 103.283 169.443 100.033C169.443 96.7832 166.808 94.1485 163.558 94.1485C160.308 94.1485 157.673 96.7832 157.673 100.033C157.673 103.283 160.308 105.918 163.558 105.918ZM163.558 137.304C166.808 137.304 169.443 134.669 169.443 131.419C169.443 128.169 166.808 125.534 163.558 125.534C160.308 125.534 157.673 128.169 157.673 131.419C157.673 134.669 160.308 137.304 163.558 137.304ZM163.558 168.69C166.808 168.69 169.443 166.055 169.443 162.805C169.443 159.555 166.808 156.92 163.558 156.92C160.308 156.92 157.673 159.555 157.673 162.805C157.673 166.055 160.308 168.69 163.558 168.69ZM38.0128 200.075C41.2629 200.075 43.8976 197.44 43.8976 194.19C43.8976 190.94 41.2629 188.305 38.0128 188.305C34.7627 188.305 32.128 190.94 32.128 194.19C32.128 197.44 34.7627 200.075 38.0128 200.075ZM100.785 200.075C104.035 200.075 106.67 197.44 106.67 194.19C106.67 190.94 104.035 188.305 100.785 188.305C97.5352 188.305 94.9004 190.94 94.9004 194.19C94.9004 197.44 97.5352 200.075 100.785 200.075ZM169.443 194.19C169.443 197.44 166.808 200.075 163.558 200.075C160.308 200.075 157.673 197.44 157.673 194.19C157.673 190.94 160.308 188.305 163.558 188.305C166.808 188.305 169.443 190.94 169.443 194.19ZM138.055 194.19C138.055 197.441 135.42 200.075 132.17 200.075C128.92 200.075 126.285 197.441 126.285 194.19C126.285 190.94 128.92 188.306 132.17 188.306C135.42 188.306 138.055 190.94 138.055 194.19ZM75.2843 194.19C75.2843 197.441 72.6496 200.075 69.3995 200.075C66.1494 200.075 63.5147 197.441 63.5147 194.19C63.5147 190.94 66.1494 188.306 69.3995 188.306C72.6496 188.306 75.2843 190.94 75.2843 194.19ZM12.5128 194.19C12.5128 197.441 9.87807 200.075 6.62798 200.075C3.37789 200.075 0.743164 197.441 0.743164 194.19C0.743164 190.94 3.37789 188.306 6.62798 188.306C9.87807 188.306 12.5128 190.94 12.5128 194.19ZM138.055 162.805C138.055 166.055 135.42 168.69 132.17 168.69C128.92 168.69 126.285 166.055 126.285 162.805C126.285 159.555 128.92 156.92 132.17 156.92C135.42 156.92 138.055 159.555 138.055 162.805ZM100.785 168.69C104.035 168.69 106.67 166.055 106.67 162.805C106.67 159.555 104.035 156.92 100.785 156.92C97.5352 156.92 94.9004 159.555 94.9004 162.805C94.9004 166.055 97.5352 168.69 100.785 168.69ZM75.2843 162.805C75.2843 166.055 72.6496 168.69 69.3995 168.69C66.1494 168.69 63.5147 166.055 63.5147 162.805C63.5147 159.555 66.1494 156.92 69.3995 156.92C72.6496 156.92 75.2843 159.555 75.2843 162.805ZM38.0128 168.69C41.2629 168.69 43.8976 166.055 43.8976 162.805C43.8976 159.555 41.2629 156.92 38.0128 156.92C34.7627 156.92 32.128 159.555 32.128 162.805C32.128 166.055 34.7627 168.69 38.0128 168.69ZM12.5128 162.805C12.5128 166.055 9.87807 168.69 6.62798 168.69C3.37789 168.69 0.743164 166.055 0.743164 162.805C0.743164 159.555 3.37789 156.92 6.62798 156.92C9.87807 156.92 12.5128 159.555 12.5128 162.805ZM138.055 131.419C138.055 134.669 135.42 137.304 132.17 137.304C128.92 137.304 126.285 134.669 126.285 131.419C126.285 128.169 128.92 125.534 132.17 125.534C135.42 125.534 138.055 128.169 138.055 131.419ZM100.785 137.304C104.035 137.304 106.67 134.669 106.67 131.419C106.67 128.169 104.035 125.534 100.785 125.534C97.5352 125.534 94.9004 128.169 94.9004 131.419C94.9004 134.669 97.5352 137.304 100.785 137.304ZM75.2843 131.419C75.2843 134.669 72.6496 137.304 69.3995 137.304C66.1494 137.304 63.5147 134.669 63.5147 131.419C63.5147 128.169 66.1494 125.534 69.3995 125.534C72.6496 125.534 75.2843 128.169 75.2843 131.419ZM38.0128 137.304C41.2629 137.304 43.8976 134.669 43.8976 131.419C43.8976 128.169 41.2629 125.534 38.0128 125.534C34.7627 125.534 32.128 128.169 32.128 131.419C32.128 134.669 34.7627 137.304 38.0128 137.304ZM12.5128 131.419C12.5128 134.669 9.87807 137.304 6.62798 137.304C3.37789 137.304 0.743164 134.669 0.743164 131.419C0.743164 128.169 3.37789 125.534 6.62798 125.534C9.87807 125.534 12.5128 128.169 12.5128 131.419ZM138.055 100.033C138.055 103.283 135.42 105.918 132.17 105.918C128.92 105.918 126.285 103.283 126.285 100.033C126.285 96.7832 128.92 94.1485 132.17 94.1485C135.42 94.1485 138.055 96.7832 138.055 100.033ZM100.785 105.918C104.035 105.918 106.67 103.283 106.67 100.033C106.67 96.7832 104.035 94.1485 100.785 94.1485C97.5352 94.1485 94.9004 96.7832 94.9004 100.033C94.9004 103.283 97.5352 105.918 100.785 105.918ZM75.2843 100.033C75.2843 103.283 72.6496 105.918 69.3995 105.918C66.1494 105.918 63.5147 103.283 63.5147 100.033C63.5147 96.7832 66.1494 94.1485 69.3995 94.1485C72.6496 94.1485 75.2843 96.7832 75.2843 100.033ZM38.0128 105.918C41.2629 105.918 43.8976 103.283 43.8976 100.033C43.8976 96.7832 41.2629 94.1485 38.0128 94.1485C34.7627 94.1485 32.128 96.7832 32.128 100.033C32.128 103.283 34.7627 105.918 38.0128 105.918ZM12.5128 100.033C12.5128 103.283 9.87807 105.918 6.62798 105.918C3.37789 105.918 0.743164 103.283 0.743164 100.033C0.743164 96.7832 3.37789 94.1485 6.62798 94.1485C9.87807 94.1485 12.5128 96.7832 12.5128 100.033ZM100.785 74.5326C104.035 74.5326 106.67 71.8979 106.67 68.6478C106.67 65.3977 104.035 62.763 100.785 62.763C97.5352 62.763 94.9004 65.3977 94.9004 68.6478C94.9004 71.8979 97.5352 74.5326 100.785 74.5326ZM75.2843 68.6478C75.2843 71.8979 72.6496 74.5326 69.3995 74.5326C66.1494 74.5326 63.5147 71.8979 63.5147 68.6478C63.5147 65.3977 66.1494 62.763 69.3995 62.763C72.6496 62.763 75.2843 65.3977 75.2843 68.6478ZM38.0128 74.5326C41.2629 74.5326 43.8976 71.8979 43.8976 68.6478C43.8976 65.3977 41.2629 62.763 38.0128 62.763C34.7627 62.763 32.128 65.3977 32.128 68.6478C32.128 71.8979 34.7627 74.5326 38.0128 74.5326ZM12.5128 68.6478C12.5128 71.8979 9.87807 74.5326 6.62798 74.5326C3.37789 74.5326 0.743164 71.8979 0.743164 68.6478C0.743164 65.3977 3.37789 62.763 6.62798 62.763C9.87807 62.763 12.5128 65.3977 12.5128 68.6478ZM100.785 43.1467C104.035 43.1467 106.67 40.5119 106.67 37.2618C106.67 34.0117 104.035 31.377 100.785 31.377C97.5352 31.377 94.9004 34.0117 94.9004 37.2618C94.9004 40.5119 97.5352 43.1467 100.785 43.1467ZM75.2843 37.2618C75.2843 40.5119 72.6496 43.1466 69.3995 43.1466C66.1494 43.1466 63.5147 40.5119 63.5147 37.2618C63.5147 34.0117 66.1494 31.377 69.3995 31.377C72.6496 31.377 75.2843 34.0117 75.2843 37.2618ZM38.0128 43.1467C41.2629 43.1467 43.8976 40.5119 43.8976 37.2618C43.8976 34.0117 41.2629 31.377 38.0128 31.377C34.7627 31.377 32.128 34.0117 32.128 37.2618C32.128 40.5119 34.7627 43.1467 38.0128 43.1467ZM12.5128 37.2618C12.5128 40.5119 9.87807 43.1466 6.62798 43.1466C3.37789 43.1466 0.743164 40.5119 0.743164 37.2618C0.743164 34.0117 3.37789 31.377 6.62798 31.377C9.87807 31.377 12.5128 34.0117 12.5128 37.2618ZM100.785 11.7612C104.035 11.7612 106.67 9.12643 106.67 5.87634C106.67 2.62625 104.035 -0.00847611 100.785 -0.00847611C97.5352 -0.00847611 94.9004 2.62625 94.9004 5.87634C94.9004 9.12643 97.5352 11.7612 100.785 11.7612ZM75.2843 5.87627C75.2843 9.12636 72.6496 11.7611 69.3995 11.7611C66.1494 11.7611 63.5147 9.12636 63.5147 5.87627C63.5147 2.62618 66.1494 -0.00854492 69.3995 -0.00854492C72.6496 -0.00854492 75.2843 2.62618 75.2843 5.87627ZM38.0128 11.7612C41.2629 11.7612 43.8976 9.12643 43.8976 5.87634C43.8976 2.62625 41.2629 -0.00847611 38.0128 -0.00847611C34.7627 -0.00847611 32.128 2.62625 32.128 5.87634C32.128 9.12643 34.7627 11.7612 38.0128 11.7612ZM12.5128 5.87634C12.5128 9.12643 9.87813 11.7612 6.62803 11.7612C3.37794 11.7612 0.743215 9.12643 0.743215 5.87634C0.743215 2.62625 3.37794 -0.00847611 6.62803 -0.00847611C9.87813 -0.00847611 12.5128 2.62625 12.5128 5.87634Z" fill="#666666"/>
</svg>
