<svg width="194" height="82" viewBox="0 0 194 82" fill="none" xmlns="http://www.w3.org/2000/svg">
<path d="M118.848 26.7101H100.664V28.7322H118.848V26.7101Z" fill="#2BA24C"/>
<path d="M117.558 23.4279H101.955V25.45H117.558V23.4279Z" fill="#2BA24C"/>
<path d="M116.064 20.1458H103.449V22.1679H116.064V20.1458Z" fill="#2BA24C"/>
<path d="M114.774 16.8688H104.739V18.8909H114.774V16.8688Z" fill="#2BA24C"/>
<path d="M113.432 13.5865H106.081V15.6087H113.432V13.5865Z" fill="#2BA24C"/>
<path d="M111.939 10.3044H107.574V12.3266H111.939V10.3044Z" fill="#2BA24C"/>
<path d="M89.3601 4.69531H79.915V0.214111H104.099V4.69531H94.6542V28.717H89.3601V4.69531Z" fill="#E43E2B"/>
<path d="M85.9408 4.69531H72.0806V0.214111H107.574V4.69531H93.7092" fill="#E43E2B"/>
<path d="M123.44 27.2921V8.79474H126.876V24.3854H136.547V27.2921H123.44ZM142.694 24.4118H153.132V27.2921H139.259V8.79474H152.762V11.675H142.694V16.4844H151.626V19.3118H142.694V24.4118ZM169.989 8.79474H173.398V27.2921H170.571L160.371 14.7667V27.2921H156.962V8.79474H159.789L169.989 21.3201V8.79474ZM182.107 27.2921V11.7015H175.976V8.79474H191.673V11.7015H185.542V27.2921H182.107Z" fill="#E43E2B"/>
<path d="M76.5618 17.5851V28.717H72.0806V0.214111H76.5618V11.346" fill="#E43E2B"/>
<path d="M59.1856 28.7322H48.0537V24.2561H76.5616V28.7322H65.4247" fill="#F0B500"/>
<path d="M52.5349 41.6271V52.7589H48.0537V24.2561H52.5349V35.388" fill="#F0B500"/>
<path d="M11.1319 76.7857H0V72.3096H28.5028V76.7857H17.371" fill="#3B7DED"/>
<path d="M28.503 65.6538V76.7857H24.0269V48.2828H28.503V59.4147" fill="#3B7DED"/>
<path d="M35.1587 52.764H24.0269V48.2828H52.5297V52.764H41.3978" fill="#F0B500"/>
<path d="M78.4295 42.7367C80.4114 43.3709 81.759 44.93 81.759 47.3346C81.759 50.5056 79.2751 52.3553 74.5186 52.3553H65.3228V33.858H73.9901C78.4295 33.858 80.8077 35.7341 80.8077 38.6673C80.8077 40.5699 79.8565 41.9704 78.4295 42.7367ZM73.6202 36.5533H68.758V41.6533H73.6202C75.9984 41.6533 77.3461 40.8077 77.3461 39.1165C77.3461 37.3989 75.9984 36.5533 73.6202 36.5533ZM74.3072 49.66C76.8969 49.66 78.2974 48.8408 78.2974 46.9911C78.2974 45.1414 76.8969 44.3222 74.3072 44.3222H68.758V49.66H74.3072ZM94.0662 52.6196C88.332 52.6196 84.104 48.5766 84.104 43.1067C84.104 37.6367 88.332 33.5937 94.0662 33.5937C99.8004 33.5937 104.028 37.6103 104.028 43.1067C104.028 48.603 99.8004 52.6196 94.0662 52.6196ZM94.0662 49.6072C97.7921 49.6072 100.567 46.8854 100.567 43.1067C100.567 39.3279 97.7921 36.6062 94.0662 36.6062C90.3403 36.6062 87.5657 39.3279 87.5657 43.1067C87.5657 46.8854 90.3403 49.6072 94.0662 49.6072ZM116.311 52.6196C110.576 52.6196 106.348 48.5766 106.348 43.1067C106.348 37.6367 110.576 33.5937 116.311 33.5937C122.045 33.5937 126.273 37.6103 126.273 43.1067C126.273 48.603 122.045 52.6196 116.311 52.6196ZM116.311 49.6072C120.036 49.6072 122.811 46.8854 122.811 43.1067C122.811 39.3279 120.036 36.6062 116.311 36.6062C112.585 36.6062 109.81 39.3279 109.81 43.1067C109.81 46.8854 112.585 49.6072 116.311 49.6072ZM135.648 52.6196C132.768 52.6196 129.888 51.7212 128.355 50.3999L129.544 47.731C131.024 48.9201 133.376 49.7657 135.648 49.7657C138.528 49.7657 139.744 48.7351 139.744 47.3611C139.744 43.3709 128.751 45.987 128.751 39.1165C128.751 36.1305 131.129 33.5937 136.203 33.5937C138.423 33.5937 140.748 34.1751 142.36 35.2321L141.277 37.901C139.612 36.9232 137.789 36.4476 136.177 36.4476C133.323 36.4476 132.16 37.5574 132.16 38.958C132.16 42.8953 143.126 40.3321 143.126 47.1232C143.126 50.0828 140.722 52.6196 135.648 52.6196ZM150.027 52.3553V36.7647H143.896V33.858H159.593V36.7647H153.462V52.3553H150.027Z" fill="#F0B500"/>
<path d="M49.6762 76.6647C44.8814 76.6647 41.2964 73.2814 41.2964 68.5986C41.2964 63.9157 44.8814 60.5324 49.6987 60.5324C52.2529 60.5324 54.4487 61.4511 55.9051 63.1539L54.023 64.924C52.8803 63.6917 51.4687 63.0867 49.8331 63.0867C46.5842 63.0867 44.2316 65.3721 44.2316 68.5986C44.2316 71.825 46.5842 74.1105 49.8331 74.1105C51.4687 74.1105 52.8803 73.5055 54.023 72.2508L55.9051 74.0432C54.4487 75.7461 52.2529 76.6647 49.6762 76.6647ZM65.6946 76.6647C60.8325 76.6647 57.2475 73.2366 57.2475 68.5986C57.2475 63.9605 60.8325 60.5324 65.6946 60.5324C70.5567 60.5324 74.1416 63.9381 74.1416 68.5986C74.1416 73.259 70.5567 76.6647 65.6946 76.6647ZM65.6946 74.1105C68.8538 74.1105 71.2065 71.8026 71.2065 68.5986C71.2065 65.3945 68.8538 63.0867 65.6946 63.0867C62.5354 63.0867 60.1827 65.3945 60.1827 68.5986C60.1827 71.8026 62.5354 74.1105 65.6946 74.1105ZM88.2753 60.7565H91.1656V76.4407H88.7682L80.1195 65.8202V76.4407H77.2291V60.7565H79.6266L88.2753 71.3769V60.7565ZM100.23 76.6647C97.7882 76.6647 95.3459 75.9029 94.0464 74.7826L95.0547 72.5196C96.3094 73.5279 98.3035 74.2449 100.23 74.2449C102.673 74.2449 103.703 73.3711 103.703 72.2059C103.703 68.8226 94.3825 71.0408 94.3825 65.2153C94.3825 62.6834 96.399 60.5324 100.701 60.5324C102.583 60.5324 104.555 61.0254 105.922 61.9216L105.003 64.1846C103.591 63.3556 102.045 62.9523 100.679 62.9523C98.2587 62.9523 97.2728 63.8933 97.2728 65.0808C97.2728 68.4193 106.571 66.246 106.571 72.0043C106.571 74.5138 104.532 76.6647 100.23 76.6647ZM116.204 76.6647C111.902 76.6647 109.325 74.1777 109.325 69.6069V60.7565H112.238V69.4948C112.238 72.7213 113.694 74.1105 116.226 74.1105C118.758 74.1105 120.192 72.7213 120.192 69.4948V60.7565H123.06V69.6069C123.06 74.1777 120.483 76.6647 116.204 76.6647ZM127.139 76.4407V60.7565H130.052V73.976H138.253V76.4407H127.139ZM142.268 76.4407V63.2211H137.07V60.7565H150.379V63.2211H145.181V76.4407H142.268ZM152.565 76.4407V60.7565H155.478V76.4407H152.565ZM170.766 60.7565H173.656V76.4407H171.259L162.61 65.8202V76.4407H159.72V60.7565H162.117L170.766 71.3769V60.7565ZM188.569 73.3038V68.4193H191.325V74.6706C189.689 75.9926 187.404 76.6647 185.186 76.6647C180.324 76.6647 176.739 73.2814 176.739 68.5986C176.739 63.9157 180.324 60.5324 185.231 60.5324C187.852 60.5324 190.048 61.4063 191.527 63.0867L189.689 64.8792C188.457 63.6469 187.046 63.0867 185.365 63.0867C182.027 63.0867 179.674 65.3497 179.674 68.5986C179.674 71.7802 182.027 74.1105 185.343 74.1105C186.463 74.1105 187.561 73.8864 188.569 73.3038Z" fill="#3B7DED"/>
<path d="M61.7255 7.17975C61.7245 6.8025 61.8355 6.43343 62.0445 6.11934C62.2535 5.80524 62.551 5.56025 62.8993 5.41541C63.2477 5.27058 63.6312 5.23242 64.0013 5.30577C64.3713 5.37913 64.7113 5.56069 64.978 5.82745C65.2448 6.09421 65.4264 6.43417 65.4997 6.80422C65.5731 7.17428 65.5349 7.55779 65.3901 7.90614C65.2452 8.25449 65.0002 8.552 64.6861 8.76097C64.3721 8.96993 64.003 9.08095 63.6257 9.07994C63.1222 9.0786 62.6396 8.87797 62.2836 8.52191C61.9275 8.16585 61.7269 7.6833 61.7255 7.17975ZM68.9249 12.7279C68.7757 12.5444 68.5599 12.4275 68.3247 12.4027C68.0895 12.378 67.8541 12.4474 67.67 12.5958L65.3786 13.6424L63.5089 9.82681L61.5833 8.68873L57.3561 8.59728C57.1351 8.58981 56.9157 8.63689 56.7172 8.73436C56.5187 8.83184 56.3473 8.9767 56.218 9.15615L54.6125 11.3917C54.4888 11.5629 54.438 11.7762 54.4714 11.9848C54.5047 12.1934 54.6194 12.3802 54.7904 12.5043C54.8752 12.566 54.9714 12.6102 55.0735 12.6344C55.1756 12.6586 55.2814 12.6623 55.3849 12.6453C55.4884 12.6283 55.5875 12.5909 55.6764 12.5353C55.7654 12.4797 55.8424 12.407 55.903 12.3214L57.412 10.2587L59.7796 10.66L56.2231 17.8696L52.7581 16.2946C52.5767 16.2028 52.3674 16.1833 52.1722 16.2398C51.977 16.2964 51.8105 16.4249 51.7064 16.5994L51.5844 16.8077C51.472 16.9836 51.434 17.1969 51.4788 17.4008C51.5236 17.6047 51.6474 17.7824 51.8232 17.895L55.8573 20.2626C56.0756 20.3897 56.3333 20.431 56.5804 20.3784C56.8274 20.3258 57.046 20.1831 57.1935 19.9781C58.0725 18.7435 59.7339 16.4216 59.8101 16.4571L62.9144 18.5352V22.7979C62.9144 22.7979 62.9144 23.936 63.4225 24.1748C63.5576 24.2383 63.7051 24.2712 63.8544 24.2713C64.0558 24.2746 64.2537 24.2179 64.4229 24.1084C64.5921 23.9989 64.7249 23.8417 64.8045 23.6565L65.2109 18.459C65.2109 18.459 65.2109 17.326 64.7028 17.0821L61.3445 14.4858L62.6299 12.611L64.4031 15.3699C64.5542 15.5419 64.7658 15.649 64.9939 15.6689C65.222 15.6887 65.449 15.6199 65.6275 15.4766L68.7623 13.9828C68.9493 13.8373 69.0713 13.6238 69.1017 13.3888C69.1321 13.1538 69.0686 12.9163 68.9249 12.7279Z" fill="#E43E2B"/>
</svg>
