<svg width="106" height="106" viewBox="0 0 106 106" fill="none" xmlns="http://www.w3.org/2000/svg">
<g id="Icon">
<g id="Border">
<path id="Shape" d="M0.472168 20.2288C0.472168 9.51412 9.15814 0.828125 19.8728 0.828125H86.1767C96.8914 0.828125 105.577 9.5141 105.577 20.2288V86.5327C105.577 97.2474 96.8914 105.933 86.1767 105.933H19.8729C9.15817 105.933 0.472168 97.2474 0.472168 86.5327V20.2288Z" fill="#E4E4E4"/>
</g>
<g id="Workflow">
<path id="path" fill-rule="evenodd" clip-rule="evenodd" d="M53.5183 37.0883H40.6425V33.1782H53.5183L51.6423 31.3021C50.8788 30.5386 50.8788 29.3007 51.6423 28.5372C52.4058 27.7737 53.6437 27.7737 54.4072 28.5372L59.6207 33.7508C60.3842 34.5143 60.3842 35.7522 59.6207 36.5157L54.4072 41.7292C53.6437 42.4927 52.4058 42.4927 51.6423 41.7292C50.8788 40.9657 50.8788 39.7278 51.6423 38.9643L53.5183 37.0883ZM75.1033 51.9983L73.2273 53.8743V40.9985H69.3171V53.8743L67.4411 51.9983C66.6776 51.2348 65.4397 51.2348 64.6762 51.9983C63.9127 52.7618 63.9127 53.9997 64.6762 54.7632L69.8897 59.9767C70.2715 60.3585 70.7718 60.5494 71.2722 60.5494C71.7725 60.5494 72.2729 60.3585 72.6546 59.9767L77.8682 54.7632C78.6317 53.9997 78.6317 52.7618 77.8682 51.9983C77.1047 51.2348 75.8668 51.2348 75.1033 51.9983ZM54.4073 75.4593L52.5313 73.5833H65.4071V69.6731H52.5313L54.4073 67.7971C55.1708 67.0336 55.1708 65.7957 54.4073 65.0322C53.6438 64.2687 52.4059 64.2687 51.6424 65.0322L46.4289 70.2458C45.6653 71.0093 45.6653 72.2471 46.4289 73.0107L51.6424 78.2242C52.4059 78.9877 53.6438 78.9877 54.4073 78.2242C55.1708 77.4607 55.1708 76.2228 54.4073 75.4593ZM30.9464 54.763L32.8224 52.887V65.7628H36.7326V52.887L38.6086 54.763C39.3721 55.5265 40.61 55.5265 41.3735 54.763C42.137 53.9995 42.137 52.7616 41.3735 51.9981L36.16 46.7846C35.3965 46.0211 34.1586 46.0211 33.3951 46.7846L28.1815 51.9981C27.418 52.7616 27.418 53.9995 28.1815 54.763C28.945 55.5265 30.1829 55.5265 30.9464 54.763Z" fill="#999999"/>
<path id="path_2" fill-rule="evenodd" clip-rule="evenodd" d="M76.4858 44.257H66.0587C63.8992 44.257 62.1486 42.5063 62.1486 40.3468V29.9197C62.1486 27.7602 63.8992 26.0095 66.0587 26.0095H76.4858C78.6454 26.0095 80.396 27.7602 80.396 29.9197V40.3468C80.396 42.5063 78.6454 44.257 76.4858 44.257ZM43.9013 40.3468V29.9197C43.9013 27.7602 42.1506 26.0095 39.9911 26.0095H29.564C27.4045 26.0095 25.6538 27.7602 25.6538 29.9197V40.3468C25.6538 42.5063 27.4045 44.257 29.564 44.257H39.9911C42.1506 44.257 43.9013 42.5063 43.9013 40.3468ZM39.9912 62.5043H29.5641C27.4045 62.5043 25.6539 64.255 25.6539 66.4145V76.8416C25.6539 79.0011 27.4045 80.7518 29.5641 80.7518H39.9912C42.1507 80.7518 43.9014 79.0011 43.9014 76.8416V66.4145C43.9014 64.255 42.1507 62.5043 39.9912 62.5043ZM62.1486 66.4145V76.8416C62.1486 79.0011 63.8992 80.7518 66.0587 80.7518H76.4858C78.6454 80.7518 80.396 79.0011 80.396 76.8416V66.4145C80.396 64.255 78.6454 62.5043 76.4858 62.5043H66.0587C63.8992 62.5043 62.1486 64.255 62.1486 66.4145Z" fill="black"/>
</g>
</g>
</svg>
