<svg width="33" height="33" viewBox="0 0 33 33" fill="none" xmlns="http://www.w3.org/2000/svg">
<g id="akar-icons:google-fill" opacity="0.8">
<path id="Vector" d="M28.8237 13.6059C28.9879 14.4854 29.0773 15.4049 29.0773 16.3645C29.0773 23.8704 24.0538 29.2075 16.4665 29.2075C14.7411 29.208 13.0325 28.8685 11.4382 28.2085C9.84404 27.5484 8.39552 26.5807 7.17545 25.3606C5.95537 24.1406 4.98766 22.6921 4.32761 21.0978C3.66755 19.5036 3.32809 17.795 3.32861 16.0696C3.32809 14.3441 3.66755 12.6355 4.32761 11.0413C4.98766 9.44707 5.95537 7.99855 7.17545 6.77848C8.39552 5.5584 9.84404 4.59069 11.4382 3.93063C13.0325 3.27058 14.7411 2.93112 16.4665 2.93164C20.0139 2.93164 22.9781 4.23689 25.2523 6.35626L21.5487 10.0598V10.0505C20.1701 8.7372 18.4204 8.06322 16.4665 8.06322C12.1317 8.06322 8.60834 11.7254 8.60834 16.0616C8.60834 20.3964 12.1317 24.0666 16.4665 24.0666C20.3996 24.0666 23.0769 21.8177 23.6267 18.7294H16.4665V13.6059H28.825H28.8237Z" fill="#B8BEC6"/>
</g>
</svg>
