<svg width="33" height="33" viewBox="0 0 33 33" fill="none" xmlns="http://www.w3.org/2000/svg">
<g id="akar-icons:instagram-fill" opacity="0.8">
<path id="Vector" fill-rule="evenodd" clip-rule="evenodd" d="M10.3592 1.47676C11.9247 1.40469 12.4239 1.38867 16.4117 1.38867C20.3995 1.38867 20.8987 1.40602 22.4628 1.47676C24.027 1.54749 25.0947 1.79706 26.0289 2.15874C27.0072 2.52843 27.8947 3.10632 28.6287 3.8537C29.3761 4.5864 29.9527 5.47258 30.321 6.45219C30.684 7.38642 30.9323 8.45411 31.0043 10.0156C31.0764 11.5838 31.0924 12.0829 31.0924 16.0694C31.0924 20.0572 31.0751 20.5564 31.0043 22.1219C30.9336 23.6834 30.684 24.7511 30.321 25.6853C29.9527 26.665 29.3751 27.5527 28.6287 28.2864C27.8947 29.0338 27.0072 29.6104 26.0289 29.9787C25.0947 30.3417 24.027 30.59 22.4655 30.6621C20.8987 30.7341 20.3995 30.7501 16.4117 30.7501C12.4239 30.7501 11.9247 30.7328 10.3592 30.6621C8.79773 30.5913 7.73004 30.3417 6.79581 29.9787C5.8161 29.6103 4.92845 29.0328 4.19465 28.2864C3.44778 27.5533 2.8698 26.6661 2.50103 25.6866C2.13935 24.7524 1.89111 23.6847 1.81904 22.1232C1.74697 20.555 1.73096 20.0559 1.73096 16.0694C1.73096 12.0816 1.74831 11.5824 1.81904 10.0183C1.88978 8.45411 2.13935 7.38642 2.50103 6.45219C2.87035 5.47269 3.44876 4.58549 4.19599 3.85237C4.92874 3.10565 5.8155 2.52769 6.79448 2.15874C7.7287 1.79706 8.79639 1.54883 10.3579 1.47676H10.3592ZM22.344 4.11929C20.7959 4.04855 20.3314 4.03387 16.4117 4.03387C12.4919 4.03387 12.0275 4.04855 10.4793 4.11929C9.0473 4.18468 8.27056 4.42358 7.75273 4.62511C7.06807 4.89203 6.57827 5.20833 6.06444 5.72216C5.57737 6.19601 5.20252 6.77287 4.96739 7.41044C4.76586 7.92827 4.52697 8.70501 4.46157 10.1371C4.39084 11.6852 4.37616 12.1496 4.37616 16.0694C4.37616 19.9892 4.39084 20.4536 4.46157 22.0018C4.52697 23.4338 4.76586 24.2105 4.96739 24.7284C5.20228 25.365 5.57731 25.9429 6.06444 26.4167C6.53823 26.9038 7.11612 27.2788 7.75273 27.5137C8.27056 27.7152 9.0473 27.9541 10.4793 28.0195C12.0275 28.0903 12.4906 28.1049 16.4117 28.1049C20.3328 28.1049 20.7959 28.0903 22.344 28.0195C23.7761 27.9541 24.5528 27.7152 25.0707 27.5137C25.7553 27.2468 26.2451 26.9305 26.7589 26.4167C27.2461 25.9429 27.6211 25.365 27.856 24.7284C28.0575 24.2105 28.2964 23.4338 28.3618 22.0018C28.4325 20.4536 28.4472 19.9892 28.4472 16.0694C28.4472 12.1496 28.4325 11.6852 28.3618 10.1371C28.2964 8.70501 28.0575 7.92827 27.856 7.41044C27.5891 6.72579 27.2728 6.23598 26.7589 5.72216C26.2851 5.23512 25.7082 4.86028 25.0707 4.62511C24.5528 4.42358 23.7761 4.18468 22.344 4.11929ZM14.5366 20.5951C15.5838 21.031 16.7499 21.0898 17.8356 20.7615C18.9214 20.4332 19.8595 19.7381 20.4897 18.795C21.12 17.8519 21.4032 16.7192 21.2911 15.5904C21.179 14.4616 20.6784 13.4068 19.875 12.6061C19.3628 12.0942 18.7435 11.7023 18.0617 11.4585C17.3799 11.2147 16.6525 11.1251 15.9319 11.1962C15.2113 11.2673 14.5154 11.4973 13.8943 11.8696C13.2733 12.2418 12.7425 12.7472 12.3402 13.3493C11.9379 13.9513 11.6741 14.6351 11.5677 15.3513C11.4614 16.0676 11.5152 16.7985 11.7253 17.4915C11.9353 18.1844 12.2964 18.8222 12.7825 19.3589C13.2686 19.8955 13.8677 20.3177 14.5366 20.5951ZM11.0759 10.7336C11.7766 10.0329 12.6085 9.47709 13.524 9.09787C14.4395 8.71865 15.4207 8.52347 16.4117 8.52347C17.4026 8.52347 18.3839 8.71865 19.2994 9.09787C20.2149 9.47709 21.0468 10.0329 21.7475 10.7336C22.4482 11.4343 23.004 12.2662 23.3832 13.1817C23.7624 14.0972 23.9576 15.0785 23.9576 16.0694C23.9576 17.0603 23.7624 18.0416 23.3832 18.9571C23.004 19.8726 22.4482 20.7045 21.7475 21.4052C20.3323 22.8203 18.413 23.6153 16.4117 23.6153C14.4104 23.6153 12.491 22.8203 11.0759 21.4052C9.66077 19.99 8.86576 18.0707 8.86576 16.0694C8.86576 14.0681 9.66077 12.1488 11.0759 10.7336ZM25.6312 9.64725C25.8048 9.48345 25.9438 9.28648 26.04 9.06799C26.1361 8.84951 26.1875 8.61395 26.1909 8.37527C26.1944 8.13659 26.15 7.89964 26.0602 7.67844C25.9705 7.45725 25.8373 7.25631 25.6685 7.08752C25.4997 6.91873 25.2988 6.78552 25.0776 6.69578C24.8564 6.60604 24.6194 6.5616 24.3808 6.56508C24.1421 6.56855 23.9065 6.61989 23.688 6.71604C23.4695 6.81219 23.2726 6.9512 23.1088 7.12483C22.7902 7.46253 22.6158 7.91108 22.6226 8.37527C22.6293 8.83946 22.8167 9.28274 23.145 9.61101C23.4733 9.93927 23.9166 10.1267 24.3808 10.1334C24.8449 10.1402 25.2935 9.96581 25.6312 9.64725Z" fill="#B8BEC6"/>
</g>
</svg>
