<svg width="33" height="33" viewBox="0 0 33 33" fill="none" xmlns="http://www.w3.org/2000/svg">
<g id="icon" opacity="0.8" clip-path="url(#clip0_4_21)">
<path id="Vector" d="M25.0542 24.5297H21.4974V18.955C21.4974 17.6258 21.4707 15.9148 19.6423 15.9148C17.7885 15.9148 17.5056 17.3615 17.5056 18.8576V24.5297H13.9475V13.0667H17.3641V14.6282H17.4108C17.8886 13.7287 19.0497 12.7771 20.7847 12.7771C24.3882 12.7771 25.0555 15.1501 25.0555 18.237V24.5297H25.0542ZM9.93034 11.4986C9.65882 11.4989 9.3899 11.4457 9.139 11.3419C8.8881 11.2381 8.66015 11.0858 8.46822 10.8938C8.27629 10.7017 8.12415 10.4737 8.02053 10.2227C7.9169 9.97173 7.86384 9.70277 7.86436 9.43125C7.86463 9.02264 7.98605 8.62328 8.21328 8.28368C8.44052 7.94408 8.76335 7.67949 9.14096 7.52336C9.51857 7.36724 9.93399 7.32659 10.3347 7.40657C10.7354 7.48654 11.1034 7.68355 11.3922 7.97266C11.6809 8.26178 11.8774 8.63003 11.9569 9.03084C12.0363 9.43166 11.9952 9.84703 11.8385 10.2244C11.6819 10.6018 11.4169 10.9243 11.077 11.1511C10.7371 11.3779 10.3376 11.4988 9.92901 11.4986H9.93034ZM11.7134 24.5297H8.14597V13.0667H11.7147V24.5297H11.7134ZM26.8359 4.05811H6.36159C5.37932 4.05811 4.58789 4.83218 4.58789 5.7891V26.3501C4.58789 27.307 5.38065 28.0811 6.36026 28.0811H26.8305C27.8101 28.0811 28.6109 27.307 28.6109 26.3501V5.7891C28.6109 4.83218 27.8101 4.05811 26.8305 4.05811H26.8345H26.8359Z" fill="#B8BEC6"/>
</g>
<defs>
<clipPath id="clip0_4_21">
<rect width="32.0307" height="32.0307" fill="white" transform="translate(0.583984 0.0537109)"/>
</clipPath>
</defs>
</svg>
