<svg width="38" height="38" viewBox="0 0 38 38" fill="none" xmlns="http://www.w3.org/2000/svg">
<rect y="0.229492" width="37.3691" height="37.3691" rx="18.6846" fill="white"/>
<path d="M26.081 16.1814V22.7109C26.081 23.8397 25.1662 24.7545 24.0374 24.7545H13.3327C12.7907 24.7545 12.2709 24.5392 11.8876 24.156C11.5044 23.7727 11.2891 23.2529 11.2891 22.7109V16.1814L18.4507 20.1207C18.5967 20.2009 18.7738 20.2009 18.9194 20.1207L26.081 16.181V16.1814ZM24.0374 13.0767C24.5709 13.0767 25.0832 13.2854 25.4649 13.6581C25.8466 14.0307 26.0674 14.5379 26.0802 15.0712L18.685 19.139L11.2898 15.0708L11.2906 15.0358C11.3124 14.5089 11.5371 14.0107 11.9177 13.6456C12.2983 13.2805 12.8053 13.0766 13.3327 13.0767H24.0374Z" fill="#FD7D4C"/>
</svg>
