<svg width="52" height="48" viewBox="0 0 52 48" fill="none" xmlns="http://www.w3.org/2000/svg">
<path d="M49.8004 26.7018C50.1713 26.7018 50.5423 26.8873 50.9133 27.2582C51.1915 27.6292 51.2843 28.0002 51.2843 28.3712C50.9133 30.968 50.0786 33.2866 48.9657 35.5124C47.76 37.7383 46.2761 39.7786 44.514 41.448C44.143 41.7263 43.772 41.819 43.401 41.819C43.0301 41.819 42.6591 41.7263 42.4736 41.3553L27.8201 26.7018H49.8004ZM43.4938 38.202C45.7196 35.7907 47.2035 32.9156 48.0382 29.6696H34.9614L43.4938 38.202ZM21.6063 26.7018L36.0743 41.1698C36.3525 41.5408 36.4453 41.9117 36.4453 42.3755C36.4453 42.8392 36.2598 43.2102 35.8888 43.3956C32.179 46.0852 28.0056 47.4764 23.3684 47.4764H23.0902C19.1949 47.4764 15.5779 46.5489 12.2391 44.6013C8.90035 42.6537 6.11804 40.0569 4.07767 36.7181C2.03731 33.4721 0.924383 29.9478 0.831639 26.0526C0.646152 22.2501 1.3881 18.7258 3.05749 15.387C4.72688 12.141 7.04547 9.45142 10.0133 7.22557C12.9811 5.09246 16.2271 3.79405 19.9369 3.23758H20.1223C20.4933 3.23758 20.8643 3.42307 21.1425 3.7013C21.4208 3.97953 21.6063 4.35051 21.6063 4.72148V26.7018ZM23.3684 44.5086C26.7072 44.5086 29.7677 43.5811 32.6428 41.9117L18.6384 27.9074V6.48362C15.6706 7.22557 13.0738 8.52398 10.848 10.3789C8.52937 12.2337 6.76724 14.5523 5.46883 17.2419C4.17042 20.0242 3.61395 22.8993 3.79944 25.8671C3.89218 29.2058 4.81962 32.3591 6.6745 35.1414C8.43663 38.0165 10.7552 40.3351 13.723 42.0045C16.6908 43.6739 19.7514 44.5086 23.0902 44.5086H23.3684ZM48.3165 20.6734C48.3165 21.1371 48.131 21.5081 47.8527 21.7863C47.5745 22.1573 47.2035 22.2501 46.8326 22.2501H26.058V1.47545C26.058 1.10448 26.1507 0.826244 26.4289 0.455268C26.7072 0.177037 27.0781 -0.00845051 27.5419 -0.00845051H27.6346C31.2516 0.269781 34.5904 1.38271 37.6509 3.23758C40.7115 5.09246 43.2156 7.59654 45.0704 10.6571C46.9253 13.7176 48.0382 17.0564 48.3165 20.6734ZM29.0258 19.2823H45.1632C44.514 15.2015 42.6591 11.5845 39.6913 8.61672C36.7235 5.64892 33.1065 3.79405 29.0258 3.14484V19.2823Z" fill="black"/>
</svg>
