<svg width="38" height="39" viewBox="0 0 38 39" fill="none" xmlns="http://www.w3.org/2000/svg">
<rect y="0.830078" width="37.3691" height="37.3691" rx="18.6846" fill="white"/>
<path d="M21.2131 22.7147L22.521 21.4068C22.6971 21.2328 22.92 21.1137 23.1626 21.0639C23.4051 21.0142 23.6569 21.0359 23.8873 21.1265L25.4813 21.7629C25.7142 21.8575 25.9138 22.0188 26.0552 22.2266C26.1965 22.4344 26.2731 22.6794 26.2754 22.9307V25.8502C26.2741 26.0211 26.2381 26.19 26.1698 26.3467C26.1014 26.5034 26.0021 26.6447 25.8777 26.762C25.7533 26.8793 25.6065 26.9702 25.446 27.0292C25.2856 27.0883 25.1149 27.1142 24.9441 27.1055C13.7743 26.4107 11.5204 16.9517 11.0942 13.3315C11.0744 13.1537 11.0925 12.9738 11.1472 12.8035C11.202 12.6332 11.2922 12.4765 11.4119 12.3435C11.5316 12.2106 11.678 12.1045 11.8417 12.0323C12.0053 11.96 12.1824 11.9232 12.3612 11.9243H15.1815C15.4331 11.9251 15.6788 12.0011 15.8869 12.1426C16.095 12.2841 16.256 12.4847 16.3492 12.7184L16.9857 14.3125C17.0792 14.542 17.1031 14.794 17.0543 15.037C17.0055 15.28 16.8862 15.5032 16.7112 15.6788L15.4033 16.9867C15.4033 16.9867 16.1566 22.0841 21.2131 22.7147Z" fill="#FD7D4C"/>
</svg>
