<svg width="81" height="80" viewBox="0 0 81 80" fill="none" xmlns="http://www.w3.org/2000/svg">
<g id="play-button">
<path id="Shape" fill-rule="evenodd" clip-rule="evenodd" d="M40.1006 0.00280762C18.0095 0.00280762 0.100586 17.9114 0.100586 40.0028C0.100586 62.0942 18.0095 80.0028 40.1006 80.0028C62.1917 80.0028 80.1006 62.0942 80.1006 40.0028C80.1006 17.9114 62.1917 0.00280762 40.1006 0.00280762Z" fill="white"/>
<path id="Path" d="M53.9256 42.1232L33.9256 54.6232C33.5209 54.8758 33.0607 55.0029 32.6006 55.0029C32.1837 55.0029 31.7662 54.8991 31.3884 54.6891C30.5937 54.2485 30.1006 53.4122 30.1006 52.5029V27.5029C30.1006 26.5935 30.5937 25.7572 31.3884 25.3166C32.1831 24.8735 33.1548 24.9004 33.9256 25.3825L53.9256 37.8825C54.6562 38.3404 55.1006 39.1411 55.1006 40.0029C55.1006 40.8646 54.6562 41.6655 53.9256 42.1232Z" fill="black"/>
</g>
</svg>
