<svg width="49" height="43" viewBox="0 0 49 43" fill="none" xmlns="http://www.w3.org/2000/svg">
<path d="M43.5921 9.47788C44.7978 9.47788 45.818 9.9416 46.7454 10.7763C47.5801 11.7037 48.0438 12.7239 48.0438 13.9296V37.672C48.0438 38.9704 47.5801 39.9906 46.7454 40.8253C45.818 41.7527 44.7978 42.1237 43.5921 42.1237H5.01073C3.71231 42.1237 2.69213 41.7527 1.85744 40.8253C0.930001 39.9906 0.559026 38.9704 0.559026 37.672V13.9296C0.559026 12.7239 0.930001 11.7037 1.85744 10.7763C2.69213 9.9416 3.71231 9.47788 5.01073 9.47788H15.398V2.80033C15.398 2.24386 15.5835 1.6874 16.0472 1.22368C16.4182 0.852707 16.9747 0.574476 17.6239 0.574476H30.979C31.5354 0.574476 32.0919 0.852707 32.5556 1.22368C32.9266 1.6874 33.2048 2.24386 33.2048 2.80033V9.47788H43.5921ZM18.3658 3.54228V9.47788H30.237V3.54228H18.3658ZM45.076 37.672V24.3169H30.237V28.0266C30.237 28.6758 29.9588 29.2323 29.5878 29.6033C29.1241 30.067 28.5676 30.2525 28.0112 30.2525H20.5917C19.9425 30.2525 19.386 30.067 19.015 29.6033C18.5513 29.2323 18.3658 28.6758 18.3658 28.0266V24.3169H3.52683V37.672C3.52683 38.1357 3.61957 38.5067 3.8978 38.7849C4.17603 39.0631 4.54701 39.1559 5.01073 39.1559H43.5921C43.9631 39.1559 44.3341 39.0631 44.6123 38.7849C44.8905 38.5067 45.076 38.1357 45.076 37.672ZM21.3336 27.2847H27.2692V24.3169H21.3336V27.2847ZM45.076 21.3491V13.9296C45.076 13.5586 44.8905 13.1876 44.6123 12.9094C44.3341 12.6312 43.9631 12.4457 43.5921 12.4457H5.01073C4.54701 12.4457 4.17603 12.6312 3.8978 12.9094C3.61957 13.1876 3.52683 13.5586 3.52683 13.9296V21.3491H45.076Z" fill="black"/>
</svg>
