<svg width="48" height="43" viewBox="0 0 48 43" fill="none" xmlns="http://www.w3.org/2000/svg">
<path d="M31.5961 0.57447C34.9349 0.57447 37.9027 1.03819 40.4995 1.78014C42.8181 2.52209 44.673 3.44953 45.9714 4.56245C47.2698 5.67538 47.919 6.88105 47.919 7.99397V25.8008C47.919 27.0992 47.2698 28.2121 45.9714 29.325C44.673 30.438 42.8181 31.3654 40.5922 32.0146C38.2736 32.7566 35.7696 33.1275 33.08 33.2203V34.7042C33.08 36.0953 32.338 37.301 30.8541 38.4139C29.3702 39.5269 27.4226 40.4543 24.9185 41.1035C22.4145 41.8455 19.7249 42.1237 16.7571 42.1237C13.7893 42.1237 11.007 41.8455 8.50289 41.1035C5.99881 40.4543 4.05119 39.5269 2.56729 38.4139C1.08339 37.301 0.434181 36.0953 0.434181 34.7042V16.8974C0.434181 14.9498 1.91808 13.2804 4.97863 11.7965C7.76094 10.4981 11.1925 9.7561 15.2732 9.57062V7.99397C15.2732 6.69556 16.0151 5.39715 17.5918 4.19148C18.3337 3.63501 19.0757 3.1713 20.0031 2.70758C23.1564 1.31642 27.0516 0.57447 31.5961 0.57447ZM30.1122 34.7042V30.067C28.6283 31.0872 26.6807 31.8291 24.3621 32.3856C21.9507 32.9421 19.4467 33.2203 16.7571 33.2203C13.9748 33.2203 11.4707 32.9421 9.1521 32.3856C6.74076 31.8291 4.88588 31.0872 3.40198 30.067V34.7042C3.40198 35.2606 3.8657 35.8171 4.97863 36.4663C6.09155 37.2083 7.57545 37.8575 9.43033 38.3212C11.6562 38.8777 14.0675 39.1559 16.7571 39.1559C19.3539 39.1559 21.858 38.8777 24.0838 38.3212C25.9387 37.8575 27.4226 37.2083 28.5355 36.4663C29.5557 35.8171 30.1122 35.2606 30.1122 34.7042ZM30.1122 25.8008V21.1636C28.6283 22.1838 26.6807 22.9257 24.3621 23.4822C21.9507 24.0386 19.4467 24.3169 16.7571 24.3169C13.9748 24.3169 11.4707 24.0386 9.1521 23.4822C6.74076 22.9257 4.88588 22.1838 3.40198 21.1636V25.8008C3.40198 26.3572 3.8657 26.9137 4.97863 27.5629C6.09155 28.3049 7.57545 28.9541 9.43033 29.4178C11.6562 29.9742 14.0675 30.2525 16.7571 30.2525C19.3539 30.2525 21.858 29.9742 24.0838 29.4178C25.9387 28.9541 27.4226 28.3049 28.5355 27.5629C29.5557 26.9137 30.1122 26.3572 30.1122 25.8008ZM16.7571 21.3491C20.4668 21.3491 23.7129 20.9781 26.4024 20.0507C28.9993 19.216 30.3904 18.1958 30.3904 16.8974C30.3904 15.6917 28.9993 14.6715 26.4024 13.7441C23.7129 12.9094 20.4668 12.4457 16.7571 12.4457C12.9546 12.4457 9.70856 12.9094 7.11173 13.7441C4.42216 14.6715 3.12375 15.6917 3.12375 16.8974C3.12375 18.1958 4.42216 19.216 7.11173 20.0507C9.70856 20.9781 12.9546 21.3491 16.7571 21.3491ZM44.9512 25.8008V21.1636C43.56 22.091 41.7979 22.7402 39.7575 23.2967C37.7172 23.8532 35.4913 24.2241 33.08 24.2241V30.1597C35.3986 30.1597 37.5317 29.7888 39.5721 29.1396C41.2414 28.7686 42.5399 28.1194 43.56 27.3774C44.4875 26.821 44.9512 26.2645 44.9512 25.8008ZM44.9512 16.8974V12.2602C43.4673 13.1876 41.7052 13.9296 39.5721 14.486C37.439 15.0425 35.1204 15.3207 32.709 15.4135C32.8945 15.9699 33.08 16.5264 33.08 16.8974V21.2563C35.3986 21.1636 37.5317 20.7926 39.5721 20.2362C41.2414 19.7724 42.5399 19.216 43.56 18.474C44.4875 17.9176 44.9512 17.3611 44.9512 16.8974ZM31.5961 12.4457C35.3058 12.4457 38.5519 12.0747 41.2414 11.1473C43.8383 10.3126 45.2294 9.29239 45.2294 7.99397C45.2294 6.7883 43.8383 5.76812 41.2414 4.84068C38.5519 4.00599 35.3058 3.54227 31.5961 3.54227C27.7936 3.54227 24.5476 4.00599 21.9507 4.84068C19.2612 5.76812 17.9628 6.7883 17.9628 7.99397C17.9628 8.55044 18.241 9.1069 18.8902 9.57062C23.3419 9.84885 26.8662 10.7763 29.6485 12.3529H30.0194C30.6687 12.4457 31.2251 12.4457 31.5961 12.4457Z" fill="black"/>
</svg>
