<svg width="33" height="33" viewBox="0 0 33 33" fill="none" xmlns="http://www.w3.org/2000/svg">
<g id="akar-icons:twitter-fill" opacity="0.8">
<path id="Vector" d="M31.5547 6.64188C30.4403 7.13569 29.2431 7.46934 27.9846 7.62015C29.2832 6.84313 30.2547 5.62019 30.7179 4.17952C29.4978 4.90421 28.1626 5.4143 26.7701 5.68764C25.8337 4.68783 24.5934 4.02515 23.2418 3.80246C21.8902 3.57978 20.5029 3.80956 19.2952 4.45613C18.0876 5.10269 17.1272 6.12988 16.5632 7.37819C15.9992 8.62651 15.863 10.0261 16.1759 11.3597C13.7038 11.2356 11.2854 10.5931 9.07771 9.4738C6.86999 8.35454 4.92228 6.78357 3.361 4.86285C2.82715 5.78373 2.52019 6.85142 2.52019 7.98851C2.5196 9.01215 2.77168 10.0201 3.25407 10.923C3.73646 11.8258 4.43424 12.5956 5.28551 13.1641C4.29826 13.1327 3.3328 12.866 2.46948 12.3861V12.4661C2.46938 13.9018 2.966 15.2933 3.87507 16.4046C4.78414 17.5158 6.04967 18.2783 7.45692 18.5626C6.54109 18.8105 5.58091 18.847 4.6489 18.6694C5.04594 19.9047 5.81935 20.985 6.86084 21.7589C7.90234 22.5329 9.15978 22.9618 10.4571 22.9855C8.2548 24.7144 5.53493 25.6522 2.73507 25.6481C2.2391 25.6482 1.74355 25.6193 1.25098 25.5613C4.093 27.3887 7.40132 28.3585 10.7801 28.3547C22.2177 28.3547 28.4704 18.8816 28.4704 10.6657C28.4704 10.3988 28.4637 10.1292 28.4517 9.8623C29.6679 8.98276 30.7178 7.89361 31.552 6.64589L31.5547 6.64188Z" fill="#B8BEC6"/>
</g>
</svg>
